<?xml version="1.0" encoding="utf-8"?>
<!-- Generator: Adobe Illustrator 24.0.1, SVG Export Plug-In . SVG Version: 6.00 Build 0)  -->
<svg version="1.1" id="Layer_1" xmlns="http://www.w3.org/2000/svg" xmlns:xlink="http://www.w3.org/1999/xlink" x="0px" y="0px"
	 viewBox="0 0 512 512" style="enable-background:new 0 0 512 512;" xml:space="preserve">
<style type="text/css">
	.st0{fill:#F26A1B;}
</style>
<path class="st0" d="M271.8,176.6c-5.1-1-10.4-1.6-15.8-1.6c-44.7,0-81,36.3-81,81s36.3,81,81,81s81-36.3,81-81
	c0-5.4-0.5-10.7-1.6-15.8l-47.6,47.6C279.3,296.3,268,301,256,301s-23.3-4.7-31.8-13.2S211,268,211,256s4.7-23.3,13.2-31.8
	L271.8,176.6z"/>
<path class="st0" d="M489.1,150.2l-32.3,32.3c-3.2,3.2-6.9,5.9-10.8,8c7.1,20.6,11,42.6,11,65.6c0,110.8-90.2,201-201,201
	S55,366.8,55,256S145.2,55,256,55c22.9,0,45,3.9,65.6,11c2.1-3.9,4.7-7.6,8-10.8l32.3-32.3C329.5,8.2,293.7,0,256,0
	C114.8,0,0,114.8,0,256s114.8,256,256,256s256-114.8,256-256C512,218.3,503.8,182.5,489.1,150.2z"/>
<path class="st0" d="M319.7,128.6L317,96.2C298,89,277.5,85,256,85c-94.3,0-171,76.7-171,171s76.7,171,171,171s171-76.7,171-171
	c0-21.5-4-42-11.2-61l-32.4-2.7l-23.8,23.8c4.8,12.4,7.4,25.9,7.4,39.9c0,61.2-49.8,111-111,111s-111-49.8-111-111s49.8-111,111-111
	c14.1,0,27.5,2.6,39.9,7.4L319.7,128.6z"/>
<path class="st0" d="M346.4,88.3l4.4,51.8L245.4,245.4c-5.9,5.9-5.9,15.4,0,21.2c2.9,2.9,6.8,4.4,10.6,4.4s7.7-1.5,10.6-4.4
	L372,161.2l51.8,4.4c0.4,0,0.8,0.1,1.3,0.1c4,0,7.8-1.6,10.6-4.4l63.6-63.6c4.1-4.1,5.5-10.3,3.5-15.8c-2-5.5-7-9.3-12.8-9.8
	l-46.1-3.9l-3.9-46.1c-0.5-5.8-4.3-10.8-9.8-12.8c-5.5-2-11.6-0.6-15.8,3.5l-63.6,63.6C347.6,79.5,346,83.9,346.4,88.3z"/>
</svg>
