<svg height="512pt" viewBox="0 0 512 512" width="512pt" xmlns="http://www.w3.org/2000/svg"><path d="m435.351562 320.179688c-9.558593-4.527344-20.308593-5.0625-30.265624-1.507813-6.261719 2.234375-11.734376 5.921875-16.0625 10.722656-3.4375-3.796875-7.628907-6.941406-12.433594-9.214843-9.558594-4.527344-20.304688-5.0625-30.265625-1.507813-9.917969 3.542969-17.871094 10.71875-22.40625 20.214844l-26.414063 52.261719c-.949218-2.949219-1.464844-6.085938-1.464844-9.347657v-60.566406c.113282-.597656.175782-1.214844.175782-1.84375v-83.738281c57.914062-5.078125 103.492187-53.84375 103.492187-113.054688v-67.847656c0-18.953125-15.417969-34.371094-34.371093-34.371094-18.953126 0-34.371094 15.417969-34.371094 34.371094v67.847656c0 24.671875-20.074219 44.746094-44.75 44.746094h-12.984375c10.597656-11.347656 17.101562-26.5625 17.101562-43.28125v-6.582031c0-35.003907-28.476562-63.480469-63.480469-63.480469-35 0-63.476562 28.476562-63.476562 63.480469v6.582031c0 16.71875 6.503906 31.933594 17.101562 43.28125h-12.984374c-24.675782 0-44.75-20.074219-44.75-44.746094v-67.847656c0-18.953125-15.417969-34.371094-34.371094-34.371094s-34.371094 15.417969-34.371094 34.371094v67.847656c0 59.410156 45.886719 108.300782 104.078125 113.101563v83.691406c0 .101563.011719.203125.015625.308594v62.101562c0 2.773438.105469 5.578125.3125 8.335938.398438 5.25 4.78125 9.246093 9.960938 9.246093.253906 0 .507812-.007812.765624-.027343 5.507813-.417969 9.632813-5.21875 9.21875-10.726563-.171874-2.257812-.257812-4.554687-.257812-6.828125v-52.410156h97.945312v52.410156c0 27.921875 22.714844 50.636719 50.636719 50.636719 19.417969 0 37.34375-11.316406 45.703125-28.835938l28.207032-55.800781c.035156-.074219.074218-.152343.109374-.230469 2.242188-4.726562 6.191407-8.304687 11.117188-10.0625 4.929688-1.757812 10.246094-1.492187 14.976562.746094 9.730469 4.609375 13.914063 16.25 9.371094 25.992188l-28.195312 55.777344c-.039063.074218-.074219.152343-.113282.230468-14.78125 31.203125-46.644531 51.367188-81.171874 51.367188-49.527344 0-89.820313-40.292969-89.820313-89.820313v-5.199219c0-5.523437-4.476563-10-10-10s-10 4.476563-10 10v5.199219c0 37.003907 18.398437 69.792969 46.527344 89.699219-18.75-.921875-36.367188-7.539062-51.195313-19.308594-4.328125-3.433594-10.617187-2.710937-14.050781 1.617188-3.429687 4.328125-2.707031 10.617187 1.621094 14.050781 19.589843 15.546875 43.160156 23.761719 68.160156 23.761719 9.851563 0 19.675781-1.363282 29.242187-4.03125 9.394532 2.625 19.292969 4.03125 29.515626 4.03125 42.175781 0 81.09375-24.601563 99.191406-62.6875l28.203125-55.792969c.039062-.078125.074219-.152344.113281-.230469 9.339844-19.730468.890625-43.386718-18.835938-52.730468zm-251.976562-196.117188v-6.582031c0-23.976563 19.503906-43.480469 43.480469-43.480469 23.972656 0 43.476562 19.503906 43.476562 43.480469v6.582031c0 22.59375-17.324219 41.210938-39.390625 43.28125h-8.175781c-22.066406-2.066406-39.390625-20.6875-39.390625-43.28125zm-109.375-1.464844v-67.847656c0-7.925781 6.445312-14.371094 14.371094-14.371094 7.925781 0 14.371094 6.445313 14.371094 14.371094v67.847656c0 35.703125 29.046874 64.746094 64.75 64.746094h54.585937c1.578125.121094 3.167969.199219 4.777344.199219 1.605469 0 3.195312-.078125 4.773437-.199219h54.585938c35.703125 0 64.75-29.042969 64.75-64.746094v-67.847656c0-7.925781 6.445312-14.371094 14.371094-14.371094 7.925781 0 14.371093 6.445313 14.371093 14.371094v67.847656c0 51.550782-41.9375 93.492188-93.488281 93.492188-5.523438 0-10 4.476562-10 10v83.300781h-98.140625v-83.300781c0-5.523438-4.476563-10-10-10h-.585937c-51.550782 0-93.492188-41.941406-93.492188-93.492188zm280.472656 272.089844c-.039062.074219-.074218.152344-.113281.226562-5.039063 10.644532-15.910156 17.523438-27.683594 17.523438-5.679687 0-10.996093-1.558594-15.5625-4.261719.914063-1.484375 1.757813-3.015625 2.503907-4.574219l28.203124-55.800781c.039063-.074219.074219-.152343.113282-.230469 2.238281-4.730468 6.1875-8.304687 11.117187-10.0625 4.925781-1.761718 10.246094-1.496093 14.976563.746094 4.5 2.132813 7.929687 5.796875 9.753906 10.316406zm0 0"/><path d="m188.703125 424.117188c-2.644531-4.847657-8.71875-6.632813-13.570313-3.992188-4.847656 2.644531-6.636718 8.71875-3.992187 13.5625 1.796875 3.386719 5.257813 5.316406 8.839844 5.316406 1.582031 0 3.183593-.375 4.679687-1.167968 4.878906-2.585938 6.734375-8.644532 4.148438-13.519532zm0 0"/><path d="m50 412c-5.523438 0-10 4.476562-10 10v13.8125c0 5.523438 4.476562 10 10 10s10-4.476562 10-10v-13.8125c0-5.523438-4.476562-10-10-10zm0 0"/><path d="m50 478.1875c-5.523438 0-10 4.476562-10 10v13.8125c0 5.523438 4.476562 10 10 10s10-4.476562 10-10v-13.8125c0-5.523438-4.476562-10-10-10zm0 0"/><path d="m90 452h-13.8125c-5.523438 0-10 4.476562-10 10s4.476562 10 10 10h13.8125c5.523438 0 10-4.476562 10-10s-4.476562-10-10-10zm0 0"/><path d="m23.8125 452h-13.8125c-5.523438 0-10 4.476562-10 10s4.476562 10 10 10h13.8125c5.523438 0 10-4.476562 10-10s-4.476562-10-10-10zm0 0"/><path d="m462 0c-5.523438 0-10 4.476562-10 10v13.8125c0 5.523438 4.476562 10 10 10s10-4.476562 10-10v-13.8125c0-5.523438-4.476562-10-10-10zm0 0"/><path d="m462 66.1875c-5.523438 0-10 4.476562-10 10v13.8125c0 5.523438 4.476562 10 10 10s10-4.476562 10-10v-13.8125c0-5.523438-4.476562-10-10-10zm0 0"/><path d="m502 40h-13.8125c-5.523438 0-10 4.476562-10 10s4.476562 10 10 10h13.8125c5.523438 0 10-4.476562 10-10s-4.476562-10-10-10zm0 0"/><path d="m422 60h13.8125c5.523438 0 10-4.476562 10-10s-4.476562-10-10-10h-13.8125c-5.523438 0-10 4.476562-10 10s4.476562 10 10 10zm0 0"/></svg>